<?xml version="1.0" standalone="no"?>
<!DOCTYPE svg PUBLIC "-//W3C//DTD SVG 20010904//EN"
 "http://www.w3.org/TR/2001/REC-SVG-20010904/DTD/svg10.dtd">
<svg version="1.0" xmlns="http://www.w3.org/2000/svg"
 width="1024.000000pt" height="1024.000000pt" viewBox="0 0 1024.000000 1024.000000"
 preserveAspectRatio="xMidYMid meet">

<g transform="translate(0.000000,1024.000000) scale(0.100000,-0.100000)"
fill="#000000" stroke="none">
<path d="M4934 7296 c-207 -54 -355 -164 -524 -391 -80 -108 -216 -281 -238
-304 -7 -8 -21 -26 -30 -40 -25 -40 -224 -285 -239 -294 -7 -4 -13 -14 -13
-21 0 -8 -7 -19 -15 -26 -13 -11 -15 0 -17 86 -6 219 -9 205 58 266 141 128
164 158 164 210 0 55 -31 81 -92 75 -36 -3 -54 -12 -85 -40 -21 -20 -40 -37
-43 -37 -3 0 -5 67 -5 149 0 164 -7 191 -57 212 -42 17 -100 -2 -118 -38 -9
-18 -15 -80 -18 -170 l-4 -143 -41 35 c-31 27 -50 35 -79 35 -72 0 -111 -73
-77 -142 6 -13 54 -61 105 -108 l93 -85 1 -89 0 -88 -35 31 c-29 25 -44 31
-83 31 -64 -1 -84 -18 -90 -78 -4 -49 -3 -51 48 -100 28 -27 48 -52 43 -54 -4
-3 -2 -3 5 -2 7 2 25 -7 40 -20 15 -14 37 -33 50 -43 20 -16 23 -27 23 -94 1
-78 -13 -121 -45 -148 -23 -20 -19 3 4 24 11 10 20 28 19 39 0 15 -2 16 -6 6
-10 -27 -24 -39 -38 -34 -11 5 -12 9 -2 19 7 7 15 11 20 8 4 -2 7 2 7 10 0 8
-7 17 -15 21 -8 3 -12 12 -9 21 4 10 0 15 -15 15 -12 0 -21 -6 -21 -15 0 -35
-18 -11 -26 33 -4 26 -9 39 -11 30 -3 -14 -15 -18 -46 -19 -23 0 -36 -3 -29
-6 18 -7 14 -23 -6 -23 -10 0 -29 -11 -42 -25 -13 -14 -30 -25 -38 -25 -9 0
-13 -7 -9 -20 3 -11 2 -18 -3 -15 -4 3 -13 -2 -20 -10 -7 -8 -18 -15 -26 -15
-7 0 -16 -5 -20 -12 -5 -8 -2 -9 9 -5 10 3 17 2 17 -3 0 -13 -27 -13 -35 0 -4
6 -15 8 -26 5 -11 -4 -19 -2 -19 4 0 6 -7 11 -15 11 -9 0 -12 -6 -8 -17 3 -10
-9 -1 -27 19 l-33 37 -19 -21 c-15 -17 -18 -18 -18 -5 0 10 5 17 11 17 5 0 7
5 4 10 -8 13 -35 -13 -35 -34 0 -9 -4 -16 -10 -16 -5 0 -10 6 -10 13 0 8 -4 7
-10 -3 -10 -14 -12 -330 -3 -330 2 0 21 12 41 27 37 27 37 27 -8 -22 l-45 -50
-5 677 -5 676 -24 26 c-27 29 -80 35 -124 15 -43 -20 -47 -57 -47 -503 l0
-416 -30 32 c-25 26 -28 34 -17 47 10 14 10 14 -4 3 -13 -10 -19 -9 -29 4 -50
59 -156 56 -178 -5 -6 -14 -13 -35 -18 -45 -5 -13 -4 -17 3 -13 6 4 13 -5 16
-21 4 -17 36 -55 91 -105 83 -76 99 -97 74 -97 -6 0 -9 3 -5 6 9 10 -36 55
-51 49 -7 -2 -11 -1 -8 4 6 10 -38 54 -46 45 -4 -3 -9 4 -13 15 -5 15 -13 19
-36 16 -30 -4 -39 11 -19 31 7 7 6 11 -5 11 -8 0 -15 -6 -15 -14 0 -10 -41
-13 -205 -13 -130 0 -205 -4 -205 -10 0 -5 5 -10 10 -10 6 0 10 -7 10 -15 0
-11 -11 -15 -43 -15 -36 0 -46 -4 -55 -22 -6 -13 -11 -17 -11 -10 -1 7 -6 10
-12 7 -6 -5 -4 -11 6 -19 15 -11 15 -14 -4 -36 -17 -21 -20 -22 -21 -7 0 9 -4
17 -8 17 -5 0 -14 10 -21 23 -7 13 -9 15 -6 4 3 -10 0 -27 -6 -39 -8 -15 -7
-24 7 -40 10 -11 14 -19 9 -18 -27 6 -35 -2 -35 -34 0 -19 -5 -38 -11 -42 -7
-4 -9 -21 -6 -40 4 -21 2 -32 -4 -29 -5 4 -9 3 -9 -2 0 -4 -7 -66 -15 -138
-30 -263 -15 -638 35 -880 86 -419 221 -753 457 -1130 l94 -150 -70 -5 c-55
-4 -75 -10 -92 -27 -41 -41 -22 -119 36 -151 28 -16 193 -17 2127 -20 l2096
-3 4 -65 3 -64 -1862 -2 c-1024 -2 -1865 -7 -1870 -12 -4 -4 40 -54 99 -110
216 -206 442 -363 723 -501 209 -103 372 -162 622 -225 296 -75 514 -103 813
-103 375 0 679 50 1058 174 411 135 774 354 1100 664 56 54 102 101 102 106 0
4 -33 8 -72 7 -40 -1 -173 0 -295 0 l-221 2 1 65 2 65 306 0 c168 0 409 3 535
7 l229 6 27 28 c39 38 39 100 2 134 -26 24 -52 30 -116 25 -16 -1 -28 2 -28 7
0 5 21 42 47 83 407 650 578 1260 542 1935 -11 197 -30 321 -94 593 -3 13 -10
20 -16 17 -6 -4 -7 3 -3 19 4 17 2 26 -6 26 -7 0 -10 -7 -6 -15 3 -8 1 -15 -4
-15 -5 0 -7 -13 -4 -30 5 -22 2 -31 -10 -36 -9 -3 -13 -10 -10 -15 10 -17 -5
-9 -38 21 -18 17 -38 30 -45 30 -7 0 -13 5 -13 10 0 6 -24 10 -54 10 -30 0
-56 5 -58 10 -2 6 -49 13 -106 17 -76 4 -102 9 -102 20 0 7 -4 13 -10 13 -5 0
-10 -11 -10 -25 0 -14 -5 -25 -12 -25 -6 0 -20 -8 -30 -17 -17 -15 -19 -15
-32 2 -9 13 -15 15 -20 6 -4 -6 -12 -9 -17 -6 -5 3 -6 0 -3 -8 6 -16 -44 -69
-58 -61 -4 3 -5 -2 -2 -10 4 -11 0 -16 -15 -16 -12 0 -21 -4 -21 -10 0 -5 -5
-10 -11 -10 -18 0 -36 -24 -33 -44 2 -14 0 -16 -9 -7 -13 13 -31 15 -22 2 3
-6 -3 -9 -14 -8 -19 1 -19 2 -3 18 9 9 20 15 23 13 4 -2 26 19 49 47 26 30 49
48 57 45 8 -4 11 -1 7 5 -7 12 55 81 66 74 4 -2 8 1 9 8 5 23 8 152 4 140 -4
-10 -10 -9 -26 2 -50 35 -116 11 -177 -66 -22 -28 -40 -47 -40 -42 0 335 -8
854 -14 870 -4 12 -23 29 -42 38 -28 13 -41 14 -75 5 -70 -19 -69 -13 -69
-557 0 -312 -4 -473 -10 -463 -5 8 -10 36 -10 62 0 35 -3 46 -13 42 -7 -2 -23
6 -36 20 -25 26 -55 24 -46 -3 10 -32 15 -107 5 -86 -5 11 -9 34 -9 52 -2 57
-68 87 -138 63 -28 -10 -36 -20 -61 -80 -11 -25 -11 -25 -11 -2 -1 13 6 36 14
52 18 36 10 39 -18 8 l-19 -23 7 24 c4 13 3 21 -1 18 -5 -2 -20 0 -34 6 -14 6
-35 11 -47 12 -19 1 -20 -2 -11 -20 9 -16 8 -18 -3 -7 -7 6 -19 12 -27 12 -7
0 -1 -10 14 -23 l28 -24 -30 2 c-16 2 -37 6 -47 10 -10 4 -17 4 -16 -1 4 -25
-2 -36 -17 -30 -9 4 -23 1 -30 -5 -7 -6 -18 -8 -24 -4 -11 7 5 20 55 44 11 5
39 26 63 46 37 32 42 41 42 80 0 57 -23 85 -77 92 -32 4 -50 0 -77 -17 l-36
-22 0 42 c0 63 -29 96 -89 99 -45 2 -51 -1 -78 -33 l-29 -35 -124 146 c-69 80
-131 152 -138 159 -7 8 -10 19 -6 25 4 7 3 9 -3 6 -6 -4 -41 30 -79 75 -151
179 -343 395 -381 429 -63 57 -162 120 -233 150 -151 63 -353 77 -516 35z
m355 -191 c89 -21 189 -77 267 -148 37 -34 133 -140 213 -237 414 -495 556
-667 651 -790 58 -74 158 -200 222 -279 65 -80 118 -150 118 -155 0 -7 -20
-10 -52 -8 -48 3 -55 7 -80 42 -16 21 -54 69 -85 107 -32 39 -96 119 -143 178
-89 114 -169 178 -235 191 -31 6 -33 8 -25 36 17 57 -26 112 -87 112 -33 0
-43 -7 -94 -64 -31 -36 -170 -195 -310 -355 -139 -159 -289 -329 -332 -377
l-80 -87 -18 37 c-18 34 -19 68 -19 555 l0 519 -29 29 c-22 21 -39 29 -66 29
-27 0 -44 -8 -66 -29 l-29 -29 0 -295 c0 -162 -3 -321 -6 -355 l-7 -60 -39 28
c-128 93 -319 76 -435 -37 -21 -21 -81 -89 -133 -152 -167 -200 -261 -311
-264 -311 -3 0 -37 53 -115 177 -38 61 -104 124 -158 151 -52 27 -140 52 -180
52 l-34 0 44 58 c24 31 52 69 63 83 10 15 60 79 109 144 50 65 101 132 115
150 14 18 117 152 229 296 113 145 232 299 265 343 146 189 222 280 269 321
62 54 152 103 232 126 77 22 238 24 324 4z m1429 -1205 c17 -27 10 -25 -19 6
-13 14 -17 23 -9 19 9 -3 21 -14 28 -25z m429 -2 c-3 -8 -6 -5 -6 6 -1 11 2
17 5 13 3 -3 4 -12 1 -19z m1101 -14 c-3 -14 -5 -12 -10 9 -3 19 -2 25 4 19 6
-6 8 -18 6 -28z m-5098 6 c0 -5 -4 -10 -10 -10 -5 0 -10 5 -10 10 0 6 5 10 10
10 6 0 10 -4 10 -10z m-491 -24 c9 -10 8 -15 -2 -19 -8 -3 -13 3 -13 14 0 23
0 23 15 5z m5594 -44 c-6 -16 -12 -19 -23 -12 -11 7 -11 10 -2 10 7 0 10 5 6
12 -4 7 -3 8 4 4 7 -4 12 0 13 11 0 10 3 13 5 7 3 -6 1 -20 -3 -32z m-4715 -7
c-3 -3 -9 2 -12 12 -6 14 -5 15 5 6 7 -7 10 -15 7 -18z m25 -11 c-9 -14 -18
-22 -21 -20 -3 3 1 12 7 20 7 8 10 20 6 25 -3 7 0 8 9 5 14 -5 13 -9 -1 -30z
m2561 -8 c39 -23 106 -102 106 -125 0 -6 4 -11 10 -11 13 0 73 -90 65 -98 -3
-3 -10 0 -15 8 -7 11 -12 9 -29 -11 -11 -13 -25 -37 -30 -54 -8 -25 -9 -26
-10 -7 -1 12 -5 22 -11 22 -5 0 -10 18 -10 40 0 53 18 51 23 -2 l4 -43 1 48
c2 45 15 58 34 32 4 -5 10 -6 14 -3 3 4 -4 20 -16 35 -20 25 -22 25 -16 6 6
-18 4 -22 -8 -17 -9 3 -19 18 -22 33 -14 67 -19 53 -18 -56 1 -124 7 -167 30
-211 8 -15 14 -33 14 -39 0 -7 4 -13 9 -13 5 0 19 -16 30 -36 12 -20 25 -33
29 -30 3 4 0 11 -8 16 -11 7 -11 11 -1 23 9 12 9 16 -1 20 -7 2 -9 8 -5 13 13
14 35 -23 33 -56 -1 -20 -21 -53 -61 -102 -136 -165 -271 -326 -304 -363 -20
-22 -54 -62 -76 -87 -30 -35 -43 -44 -52 -36 -10 8 -18 6 -32 -6 -10 -9 -24
-16 -31 -14 -27 6 -193 205 -184 220 3 5 1 7 -4 6 -10 -3 -26 16 -124 142
l-66 85 125 145 c449 519 445 515 488 538 32 18 75 14 119 -12z m989 7 c-13
-2 -35 -2 -50 0 -16 2 -5 4 22 4 28 0 40 -2 28 -4z m-4333 -23 c0 -5 -5 -10
-11 -10 -5 0 -7 5 -4 10 3 6 8 10 11 10 2 0 4 -4 4 -10z m5477 -22 c-3 -7 -5
-2 -5 12 0 14 2 19 5 13 2 -7 2 -19 0 -25z m-5428 -31 c7 -14 11 -51 8 -97
l-3 -75 -2 79 c-1 58 -7 84 -19 98 -9 10 -12 18 -6 18 5 0 15 -10 22 -23z
m-850 -36 c-7 -23 -14 -39 -16 -37 -3 2 1 23 8 45 7 23 14 39 16 37 3 -2 -1
-23 -8 -45z m5641 39 c0 -5 -5 -10 -11 -10 -5 0 -7 5 -4 10 3 6 8 10 11 10 2
0 4 -4 4 -10z m-5053 -15 c0 -8 -9 -15 -21 -15 -20 0 -20 0 0 15 10 8 19 15
20 15 0 0 1 -7 1 -15z m716 8 c-7 -2 -19 -2 -25 0 -7 3 -2 5 12 5 14 0 19 -2
13 -5z m4984 -15 c-3 -8 -6 -5 -6 6 -1 11 2 17 5 13 3 -3 4 -12 1 -19z m-657
2 c12 -8 9 -10 -13 -10 -16 0 -26 4 -22 10 8 12 16 12 35 0z m47 4 c-3 -3 -12
-4 -19 -1 -8 3 -5 6 6 6 11 1 17 -2 13 -5z m-5040 -10 c-3 -3 -12 -4 -19 -1
-8 3 -5 6 6 6 11 1 17 -2 13 -5z m5080 0 c-3 -3 -12 -4 -19 -1 -8 3 -5 6 6 6
11 1 17 -2 13 -5z m-4246 -37 c-10 -9 -11 -8 -5 6 3 10 9 15 12 12 3 -3 0 -11
-7 -18z m-279 -17 c-15 -16 -31 -30 -36 -30 -5 0 3 14 19 30 16 17 32 30 36
30 4 0 -5 -13 -19 -30z m4397 18 c-8 -7 -23 -22 -33 -33 -10 -11 -15 -13 -11
-5 13 25 37 50 48 50 6 0 4 -6 -4 -12z m-4855 -6 c3 -5 -1 -9 -9 -9 -8 0 -12
4 -9 9 3 4 7 8 9 8 2 0 6 -4 9 -8z m4729 -104 c-2 -5 0 -8 5 -8 11 0 24 28 18
38 -2 4 6 8 19 8 21 2 22 1 6 -15 -9 -9 -26 -29 -39 -45 -12 -16 -23 -27 -25
-25 -1 2 0 38 2 79 l5 75 6 -50 c4 -27 5 -53 3 -57z m-4658 4 c-3 -3 -11 0
-18 7 -9 10 -8 11 6 5 10 -3 15 -9 12 -12z m4947 -14 c-8 -8 -9 -4 -5 13 4 13
8 18 11 10 2 -7 -1 -18 -6 -23z m-2939 8 c40 -17 89 -69 161 -171 l57 -80 -1
-495 c-2 -530 -6 -635 -23 -604 -9 16 -172 227 -350 454 -155 196 -327 423
-327 429 0 10 32 50 170 212 58 68 123 148 144 178 41 55 87 91 119 91 10 0
32 -6 50 -14z m1578 -56 c13 -9 5 -58 -8 -53 -16 6 -17 20 -1 25 6 2 8 10 4
17 -6 9 -11 9 -22 0 -17 -14 -19 2 -2 19 9 9 9 12 1 12 -7 0 -15 -4 -18 -10
-3 -5 -10 -10 -16 -10 -5 0 -9 5 -9 10 0 6 6 9 13 8 7 -2 11 6 9 21 -2 24 -2
23 20 -5 12 -16 25 -31 29 -34z m-61 45 c0 -2 -10 -10 -22 -16 -21 -11 -22
-11 -9 4 13 16 31 23 31 12z m-3729 -71 c13 -14 17 -23 9 -19 -13 5 -46 45
-37 45 2 0 14 -11 28 -26z m689 -8 c0 -2 -7 -7 -16 -10 -8 -3 -12 -2 -9 4 6
10 25 14 25 6z m3165 -60 c-3 -12 -2 -15 1 -8 3 6 9 10 13 8 4 -3 -20 -34 -53
-69 -34 -36 -63 -63 -66 -61 -2 3 2 9 10 15 10 6 12 11 4 17 -6 4 -13 15 -17
24 -4 12 -2 15 9 11 7 -3 14 -9 14 -14 0 -5 5 -9 12 -9 6 0 2 10 -10 23 -22
23 -22 24 -3 43 10 10 29 28 42 38 15 13 19 21 11 24 -7 2 -12 9 -12 15 0 6
11 0 25 -13 17 -16 23 -31 20 -44z m-2721 -30 c20 -8 56 -41 85 -78 46 -58 50
-67 46 -107 -2 -28 0 -39 5 -31 7 11 11 8 19 -13 6 -15 15 -27 20 -27 5 0 -2
20 -16 45 -30 54 -24 60 8 8 12 -21 36 -55 52 -76 22 -29 27 -41 18 -50 -14
-14 -14 -27 -1 -27 6 0 10 7 10 15 0 8 5 15 10 15 6 0 10 -4 10 -9 0 -6 14
-18 30 -28 17 -9 30 -21 30 -26 0 -5 -7 -4 -15 3 -17 14 -35 5 -35 -17 0 -16
-34 -15 -87 2 -13 4 -23 3 -23 -2 0 -6 15 -15 33 -21 25 -8 27 -10 10 -11 -27
-1 -73 -38 -74 -60 0 -10 -3 -11 -5 -4 -3 7 0 21 6 32 8 17 7 24 -10 41 -11
11 -20 29 -20 41 0 35 -19 10 -25 -34 -5 -38 16 -171 29 -185 6 -6 -1 61 -14
138 -8 44 -6 59 6 48 3 -3 10 -39 15 -80 12 -83 18 -95 84 -160 40 -40 45 -50
35 -63 -7 -9 -8 -15 -2 -15 6 0 12 6 15 13 7 21 77 -65 71 -88 -4 -14 -3 -16
4 -7 7 10 15 7 34 -17 16 -18 39 -32 62 -36 20 -4 33 -11 30 -16 -3 -5 -1 -9
4 -9 5 0 13 -8 16 -17 15 -39 31 -63 43 -63 7 0 13 -5 13 -11 0 -15 52 -55 67
-51 7 2 13 -2 13 -8 0 -5 -8 -10 -17 -11 -15 0 -15 -2 2 -9 13 -6 15 -9 5 -9
-13 -1 -13 -2 0 -11 13 -9 13 -11 0 -20 -10 -6 -11 -10 -2 -10 6 0 12 -6 12
-14 0 -11 13 -13 60 -10 l60 4 0 -35 c0 -19 5 -35 10 -35 6 0 10 17 10 37 0
43 16 34 23 -12 4 -27 4 -26 6 8 1 36 2 37 41 37 l40 0 0 40 c0 37 7 45 33 41
4 -1 3 7 -2 16 -16 27 -48 63 -56 63 -4 0 -1 -7 6 -17 8 -9 14 -27 14 -40 1
-17 -4 -23 -22 -23 -20 0 -23 5 -23 39 0 30 -4 40 -19 44 -16 4 -19 12 -16 45
3 30 -1 45 -16 58 -10 9 -19 22 -19 28 1 13 70 -65 70 -78 0 -5 -7 -18 -17
-28 -20 -22 -1 -24 21 -2 19 18 22 4 4 -15 -11 -11 -9 -12 8 -7 17 5 29 -2 55
-36 18 -24 36 -45 40 -48 10 -8 32 -53 22 -47 -4 3 -9 -6 -9 -20 -2 -23 -1
-24 17 -7 10 9 19 13 19 8 0 -5 10 -21 23 -36 12 -15 33 -42 47 -60 14 -18 44
-57 68 -86 45 -56 46 -67 8 -67 -20 -1 -23 4 -20 31 2 23 -5 39 -23 56 -13 12
-34 40 -46 60 -11 21 -26 38 -32 38 -7 0 -17 10 -23 23 -11 22 -11 22 -11 -5
-1 -20 6 -28 29 -37 17 -5 30 -16 30 -24 0 -7 11 -28 24 -46 19 -26 22 -36 13
-46 -7 -8 -16 -10 -21 -4 -20 18 -26 8 -26 -41 l0 -50 -35 0 c-27 0 -37 6 -49
28 -13 24 -15 25 -22 8 -5 -13 -2 -22 10 -28 9 -5 21 -21 27 -35 8 -21 14 -24
37 -18 22 5 25 4 15 -6 -15 -15 -17 -39 -4 -39 5 0 12 8 14 18 3 9 4 1 4 -18
-2 -24 2 -34 11 -32 8 1 11 -2 6 -9 -7 -12 -13 -6 -71 67 -10 14 -26 21 -41
19 -16 -2 -20 1 -13 8 16 16 14 23 -13 51 -30 33 -50 34 -40 4 6 -22 6 -22
-14 2 -11 13 -17 31 -14 39 3 7 -3 20 -12 27 -18 12 -14 34 5 34 6 0 7 -4 4
-10 -6 -10 24 -59 38 -60 4 0 7 9 7 20 0 11 -6 19 -12 17 -7 -1 -12 6 -12 15
1 10 -7 20 -17 23 -11 4 -19 12 -19 18 -1 7 -8 0 -16 -16 -8 -15 -12 -33 -9
-40 4 -6 0 -4 -9 7 -11 13 -12 24 -6 37 13 24 12 39 -1 17 -5 -10 -15 -18 -21
-18 -9 0 -9 3 0 12 7 7 12 16 12 20 0 12 -28 10 -32 -2 -2 -6 -36 23 -76 64
-46 46 -85 77 -103 81 -16 4 -29 10 -29 15 0 12 -86 50 -114 50 -33 0 -80 -60
-71 -89 15 -48 79 -130 224 -286 31 -33 79 -87 106 -120 27 -33 56 -65 64 -71
8 -6 11 -16 7 -22 -11 -18 -26 -14 -19 5 4 11 3 14 -6 9 -6 -4 -11 -4 -10 1 4
16 -13 43 -27 43 -8 0 -14 7 -14 15 0 8 -4 15 -10 15 -17 0 -11 -15 15 -40 14
-13 23 -26 20 -28 -3 -3 -19 8 -36 24 -24 23 -29 25 -23 9 4 -11 12 -24 18
-28 6 -5 2 -6 -10 -3 -14 4 -30 -2 -50 -19 -16 -14 -37 -25 -46 -25 -9 0 -23
-8 -30 -18 -12 -16 -25 -20 -45 -12 -17 7 -103 5 -103 -2 0 -5 5 -8 10 -8 6 0
10 -4 10 -10 0 -15 -67 -12 -73 3 -3 6 -6 -5 -6 -25 l-1 -38 -49 0 c-83 0
-111 -9 -111 -36 0 -26 -10 -30 -28 -12 -9 9 -12 9 -12 -1 0 -7 -4 -9 -10 -6
-5 3 -10 1 -10 -5 0 -7 7 -9 15 -6 9 3 18 -1 21 -9 4 -9 19 -15 35 -15 27 0
29 -3 29 -40 0 -33 -3 -40 -20 -40 -16 0 -20 -7 -20 -34 0 -36 9 -44 53 -41
15 1 27 -2 27 -7 0 -12 78 -10 85 2 4 6 68 10 161 10 130 0 154 2 154 15 0 13
24 15 160 15 136 0 160 -2 160 -15 0 -12 16 -15 78 -17 54 -1 65 -3 37 -7
l-40 -5 45 -7 c48 -7 -273 -2 -430 7 -52 3 -92 2 -87 -2 4 -4 96 -11 205 -15
188 -6 185 -7 -68 -3 -146 1 -290 5 -320 7 -30 2 -37 2 -15 -1 l40 -6 -45 -7
c-25 -3 166 -6 423 -5 257 0 451 -2 431 -7 -20 -4 -231 -6 -468 -5 -338 2
-430 6 -428 16 2 14 -77 16 -179 5 l-64 -8 45 -6 45 -6 -45 -1 c-39 -2 -47 1
-57 24 -9 20 -9 25 1 21 13 -5 8 41 -13 128 -8 33 -9 21 -8 -67 1 -58 -1 -104
-5 -101 -5 2 -8 102 -8 222 l0 219 101 103 c132 136 146 173 89 231 -27 27
-36 30 -72 25 -29 -4 -51 -16 -78 -42 l-38 -37 -4 163 c-3 145 -5 167 -23 191
-39 54 -138 56 -168 4 -9 -15 -13 -159 -17 -556 l-5 -535 -372 0 -371 0 -27
25 c-52 49 -70 97 -70 190 1 144 15 166 333 498 97 101 189 200 204 220 42 56
36 123 -16 164 -17 15 -43 18 -144 18 -123 0 -124 0 -153 29 -23 23 -29 38
-29 71 0 79 24 109 228 280 100 84 116 133 64 191 -21 23 -37 31 -65 32 -20 0
-37 5 -37 9 0 16 32 58 44 58 16 0 89 77 82 88 -3 5 0 9 7 9 8 0 11 -13 9 -37
-4 -42 18 -94 47 -110 31 -16 86 -12 112 9 14 10 53 74 88 141 42 79 77 132
100 151 58 48 125 60 185 35z m3030 -107 c22 -6 50 -18 63 -28 13 -9 112 -121
221 -250 108 -128 219 -259 245 -290 55 -63 84 -114 87 -151 5 -54 -1 -78 -25
-104 -23 -25 -29 -26 -118 -26 -85 0 -96 -2 -120 -24 -32 -30 -43 -82 -25
-123 7 -18 54 -76 104 -130 403 -436 426 -469 432 -609 3 -71 1 -87 -22 -131
-14 -28 -39 -62 -56 -77 l-32 -26 -349 0 -349 0 0 150 c0 112 3 152 13 155 6
2 46 14 87 26 91 28 130 61 130 112 0 24 -9 46 -27 67 -26 32 -28 32 -97 27
-39 -2 -79 -8 -88 -12 -17 -7 -18 10 -18 263 l0 270 -26 31 c-21 26 -33 31
-69 31 -27 0 -51 -7 -66 -19 -33 -27 -37 -97 -38 -643 l-1 -458 -471 0 -472 0
6 75 c11 149 59 216 367 511 96 92 183 182 193 200 24 44 15 85 -26 120 -25
21 -38 25 -70 21 -21 -3 -49 -15 -62 -27 l-23 -21 -6 26 c-10 41 0 58 52 86
63 36 303 206 325 231 10 12 17 36 17 58 0 70 -62 110 -132 85 -20 -6 -82 -44
-138 -84 -57 -40 -109 -75 -115 -77 -22 -9 0 83 30 123 16 21 83 103 150 183
67 80 164 199 217 266 107 134 155 181 196 190 15 3 32 7 37 9 18 6 29 5 69
-6z m-1447 -372 c81 -101 300 -376 520 -655 62 -78 113 -148 113 -155 0 -7
-36 -48 -81 -92 -309 -304 -388 -434 -389 -637 l0 -58 -130 0 -130 0 0 223 0
224 80 58 c44 31 87 67 95 78 25 36 19 85 -14 118 -36 35 -79 38 -127 8 l-34
-21 0 506 c0 278 3 506 8 506 4 -1 44 -47 89 -103z m-1282 83 c3 -5 1 -10 -4
-10 -6 0 -11 5 -11 10 0 6 2 10 4 10 3 0 8 -4 11 -10z m45 -10 c-8 -5 -19 -10
-25 -10 -5 0 -3 5 5 10 8 5 20 10 25 10 6 0 3 -5 -5 -10z m-46 -18 c3 -5 -1
-9 -9 -9 -8 0 -12 4 -9 9 3 4 7 8 9 8 2 0 6 -4 9 -8z m61 -2 c-3 -5 -12 -10
-18 -10 -7 0 -6 4 3 10 19 12 23 12 15 0z m-231 -16 c3 -8 2 -12 -4 -9 -6 3
-10 10 -10 16 0 14 7 11 14 -7z m381 -99 c17 -21 40 -51 53 -66 13 -16 20 -34
16 -40 -5 -9 -2 -10 12 -5 14 5 16 4 8 -4 -6 -6 -19 -8 -28 -4 -13 5 -14 9 -5
14 9 6 5 15 -15 34 -14 15 -26 32 -26 37 0 6 -10 8 -22 5 -13 -3 -18 -3 -11 0
8 4 5 16 -10 41 -18 32 -22 34 -28 17 -4 -10 -8 -13 -8 -6 -1 7 -7 10 -13 7
-7 -4 -5 0 6 9 10 8 15 20 11 28 -8 16 19 -14 60 -67z m-25 -60 c11 -13 10
-14 -4 -9 -9 3 -16 10 -16 15 0 13 6 11 20 -6z m183 -140 c10 -11 23 -28 29
-38 8 -16 5 -15 -21 4 -17 12 -31 27 -31 32 0 4 -7 15 -15 23 -8 9 -15 23 -15
32 0 12 5 10 17 -8 10 -14 26 -34 36 -45z m-106 -7 c-3 -7 -5 -2 -5 12 0 14 2
19 5 13 2 -7 2 -19 0 -25z m44 -22 c5 -6 9 -19 8 -30 0 -17 -3 -15 -14 9 -8
17 -14 24 -15 16 0 -8 -2 -12 -5 -9 -3 3 -2 20 2 39 7 30 8 31 11 9 2 -14 8
-29 13 -34z m39 4 c0 -5 -7 -10 -15 -10 -8 0 -15 5 -15 10 0 6 7 10 15 10 8 0
15 -4 15 -10z m30 -30 c21 -11 17 -35 -5 -44 -8 -3 -17 -1 -20 5 -4 5 -1 8 6
7 6 -2 14 3 16 11 4 9 0 11 -16 6 -15 -5 -21 -2 -21 9 0 18 13 20 40 6z m35
-39 c3 -5 1 -12 -5 -16 -5 -3 -10 1 -10 9 0 18 6 21 15 7z m-11 -47 c3 -8 2
-12 -4 -9 -6 3 -10 10 -10 16 0 14 7 11 14 -7z m-109 -104 c-3 -5 -10 -10 -16
-10 -5 0 -9 5 -9 10 0 6 7 10 16 10 8 0 12 -4 9 -10z m280 -50 c3 -5 1 -10 -4
-10 -6 0 -11 5 -11 10 0 6 2 10 4 10 3 0 8 -4 11 -10z m310 -380 c-3 -10 -1
-28 5 -40 6 -11 7 -20 1 -20 -12 0 -23 44 -15 64 9 23 17 20 9 -4z m35 -35 c7
-14 17 -25 22 -25 4 0 8 -5 8 -12 0 -6 8 -21 17 -32 9 -12 2 -7 -15 11 -18 18
-32 35 -32 39 0 4 -7 16 -17 26 -9 10 -12 18 -6 18 5 0 16 -11 23 -25z m-282
-43 c15 -16 63 -94 50 -82 -3 3 -22 26 -42 53 -36 48 -41 62 -8 29z m298 -23
c4 -8 0 -9 -15 -4 -12 4 -21 2 -21 -4 0 -6 -5 -11 -11 -11 -8 0 -8 5 1 15 15
18 36 20 46 4z m44 -304 l6 200 -1 -200 c0 -126 -4 -200 -10 -200 -6 0 -10 87
-10 240 l-1 240 6 -240 5 -240 5 200z m-508 143 c16 -18 33 -42 39 -53 6 -12
-1 -7 -17 10 -15 17 -33 29 -41 27 -8 -2 -10 3 -7 13 8 21 -13 19 -25 -2 -5
-10 -12 -15 -16 -11 -6 5 22 45 34 47 2 1 17 -14 33 -31z m24 -86 c-4 -3 -11
0 -16 8 -15 24 -11 33 6 15 9 -9 13 -19 10 -23z m199 -2 c3 -5 2 -10 -4 -10
-5 0 -13 5 -16 10 -3 6 -2 10 4 10 5 0 13 -4 16 -10z m-45 -20 c-8 -5 -17 -7
-19 -4 -3 3 1 9 9 14 8 5 17 7 19 4 3 -3 -1 -9 -9 -14z m-923 -172 c-3 -8 -6
-5 -6 6 -1 11 2 17 5 13 3 -3 4 -12 1 -19z m1243 -78 c20 -6 21 -8 5 -8 -11 0
-29 3 -40 8 -25 11 1 11 35 0z"/>
<path d="M4424 6256 c-43 -19 -64 -53 -64 -102 0 -78 65 -127 136 -104 47 16
74 54 74 104 0 50 -21 83 -66 102 -40 17 -41 17 -80 0z"/>
<path d="M5574 6240 c-38 -15 -64 -59 -64 -107 0 -38 5 -50 34 -79 37 -37 67
-42 120 -20 34 14 66 65 66 106 0 73 -86 129 -156 100z"/>
<path d="M5738 5051 c-52 -58 -45 -143 16 -181 44 -27 82 -25 122 5 40 31 56
80 43 130 -14 49 -51 75 -108 75 -38 0 -51 -5 -73 -29z"/>
<path d="M6400 5391 c0 -6 4 -13 10 -16 6 -3 7 1 4 9 -7 18 -14 21 -14 7z"/>
<path d="M3770 5294 c0 -3 7 -12 15 -20 16 -17 18 -14 9 10 -6 15 -24 23 -24
10z"/>
<path d="M3770 5225 c-11 -13 -10 -14 4 -9 9 3 16 10 16 15 0 13 -6 11 -20 -6z"/>
<path d="M3777 5072 c0 -26 2 -60 3 -77 3 -27 3 -26 9 10 5 31 10 39 23 37 12
-2 16 2 12 13 -3 8 -10 12 -15 9 -5 -3 -12 8 -15 25 -10 47 -19 37 -17 -17z"/>
<path d="M3842 5020 c0 -14 2 -19 5 -12 2 6 2 18 0 25 -3 6 -5 1 -5 -13z"/>
<path d="M3860 5010 c0 -5 9 -10 21 -10 11 0 17 5 14 10 -3 6 -13 10 -21 10
-8 0 -14 -4 -14 -10z"/>
<path d="M3921 4994 c0 -11 3 -14 6 -6 3 7 2 16 -1 19 -3 4 -6 -2 -5 -13z"/>
<path d="M3955 4990 c3 -5 8 -10 11 -10 2 0 4 5 4 10 0 6 -5 10 -11 10 -5 0
-7 -4 -4 -10z"/>
<path d="M3840 4760 c0 -5 5 -10 11 -10 5 0 7 5 4 10 -3 6 -8 10 -11 10 -2 0
-4 -4 -4 -10z"/>
<path d="M4006 4573 c-6 -14 -5 -15 5 -6 7 7 10 15 7 18 -3 3 -9 -2 -12 -12z"/>
<path d="M4490 4460 c0 -5 5 -10 10 -10 6 0 10 5 10 10 0 6 -4 10 -10 10 -5 0
-10 -4 -10 -10z"/>
<path d="M4340 4222 c0 -10 43 -52 53 -52 4 0 7 7 7 16 0 8 -4 12 -10 9 -5 -3
-15 3 -22 15 -13 20 -28 27 -28 12z"/>
<path d="M4640 4190 c0 -25 16 -44 25 -30 4 7 0 19 -9 28 -13 14 -16 14 -16 2z"/>
<path d="M4405 4141 c13 -14 17 -14 30 0 14 14 13 16 -15 16 -28 0 -29 -2 -15
-16z"/>
<path d="M4645 4120 c-3 -5 -1 -10 4 -10 6 0 11 5 11 10 0 6 -2 10 -4 10 -3 0
-8 -4 -11 -10z"/>
<path d="M4560 4090 c0 -5 5 -10 10 -10 6 0 10 5 10 10 0 6 -4 10 -10 10 -5 0
-10 -4 -10 -10z"/>
<path d="M4810 4046 c0 -11 30 -39 36 -34 2 3 -5 13 -16 23 -11 10 -20 15 -20
11z"/>
<path d="M4631 3934 c0 -11 3 -14 6 -6 3 7 2 16 -1 19 -3 4 -6 -2 -5 -13z"/>
<path d="M3228 3586 c-16 -8 -28 -12 -28 -8 0 4 -9 -10 -20 -31 -32 -60 -25
-110 25 -159 38 -39 93 -38 136 0 25 23 32 38 36 78 8 99 -70 161 -149 120z"/>
<path d="M6453 7066 c-24 -21 -28 -32 -28 -74 0 -71 30 -102 97 -102 40 0 53
5 72 25 43 47 36 138 -12 164 -37 20 -98 13 -129 -13z"/>
<path d="M6463 6805 c-23 -16 -43 -70 -43 -118 0 -27 0 -27 -30 -12 -71 37
-140 1 -140 -74 0 -37 6 -45 100 -132 55 -51 95 -96 89 -99 -10 -7 19 -10 93
-13 44 -1 109 40 211 135 61 58 67 67 67 104 0 93 -103 123 -171 50 -19 -20
-19 -19 -19 42 0 72 -13 106 -47 121 -34 16 -85 14 -110 -4z"/>
<path d="M6327 6412 c-3 -4 5 -20 18 -36 l23 -29 -1 26 c-1 14 -5 23 -9 20 -5
-2 -13 -1 -19 3 -8 4 -7 9 2 15 10 6 10 9 2 9 -6 0 -14 -3 -16 -8z"/>
<path d="M3269 6142 c11 -8 11 -10 0 -15 -10 -4 -8 -6 4 -6 21 -1 18 21 -4 27
-12 3 -12 2 0 -6z"/>
<path d="M7525 6140 c-3 -6 1 -7 9 -4 18 7 21 14 7 14 -6 0 -13 -4 -16 -10z"/>
<path d="M3228 6133 c7 -3 16 -2 19 1 4 3 -2 6 -13 5 -11 0 -14 -3 -6 -6z"/>
<path d="M3318 6124 c-3 -5 5 -19 17 -31 l23 -22 -2 24 c0 13 -5 21 -10 18 -4
-3 -12 0 -16 7 -4 7 -10 8 -12 4z"/>
<path d="M3195 6098 c-11 -6 -24 -18 -29 -26 -7 -12 -10 -12 -17 -1 -5 8 -6
-1 -2 -23 3 -23 2 -38 -5 -38 -11 0 5 -52 28 -87 12 -19 24 -23 71 -23 48 0
59 4 82 28 22 23 27 37 27 80 0 43 -4 55 -27 77 -30 27 -91 34 -128 13z"/>
<path d="M3530 6100 c0 -5 5 -10 10 -10 6 0 10 5 10 10 0 6 -4 10 -10 10 -5 0
-10 -4 -10 -10z"/>
<path d="M6880 6103 c0 -13 62 -43 87 -42 10 0 2 5 -17 11 -19 5 -43 17 -52
25 -10 9 -18 11 -18 6z"/>
<path d="M7074 6059 c30 -23 43 -25 25 -2 -12 15 -12 16 4 10 10 -4 16 -3 13
2 -3 4 -19 8 -36 9 l-31 1 25 -20z"/>
<path d="M8176 6067 c3 -10 9 -15 12 -12 3 3 0 11 -7 18 -10 9 -11 8 -5 -6z"/>
<path d="M8211 6034 c0 -11 3 -14 6 -6 3 7 2 16 -1 19 -3 4 -6 -2 -5 -13z"/>
<path d="M6730 6031 c0 -5 7 -12 16 -15 24 -9 27 -7 10 9 -17 17 -26 19 -26 6z"/>
<path d="M3376 6015 c4 -8 15 -15 25 -15 10 0 19 7 19 15 0 9 -9 15 -25 15
-18 0 -23 -4 -19 -15z"/>
<path d="M8170 6021 c0 -6 4 -13 10 -16 6 -3 7 1 4 9 -7 18 -14 21 -14 7z"/>
<path d="M2051 5994 c0 -11 3 -14 6 -6 3 7 2 16 -1 19 -3 4 -6 -2 -5 -13z"/>
<path d="M3621 5984 c0 -11 3 -14 6 -6 3 7 2 16 -1 19 -3 4 -6 -2 -5 -13z"/>
<path d="M7820 5990 c0 -5 5 -10 10 -10 6 0 10 5 10 10 0 6 -4 10 -10 10 -5 0
-10 -4 -10 -10z"/>
<path d="M2021 5983 c-1 -6 -4 -20 -7 -30 -5 -17 -5 -17 6 0 6 10 9 23 6 30
-3 9 -5 9 -5 0z"/>
<path d="M2203 5963 c37 -2 97 -2 135 0 37 2 6 3 -68 3 -74 0 -105 -1 -67 -3z"/>
<path d="M2580 5940 c0 -5 5 -10 10 -10 6 0 10 5 10 10 0 6 -4 10 -10 10 -5 0
-10 -4 -10 -10z"/>
<path d="M8160 5919 c0 -5 5 -7 10 -4 6 3 10 8 10 11 0 2 -4 4 -10 4 -5 0 -10
-5 -10 -11z"/>
</g>
</svg>
